HIERARCHY
ROOT Hips
{
    OFFSET 10.801176071166992 89.52653503417969 -18.139556884765625
    CHANNELS 6 Xposition Yposition Zposition Zrotation Xrotation Yrotation
    JOINT RightUpLeg
    {
        OFFSET -10.801176071166992 0.0 0.0
        CHANNELS 3 Zrotation Xrotation Yrotation
        JOINT RightLeg
        {
            OFFSET 0.0 -44.177642822265625 0.0
            CHANNELS 3 Zrotation Xrotation Yrotation
            JOINT RightFoot
            {
                OFFSET 0.0 -45.34889221191406 0.0
                CHANNELS 3 Zrotation Xrotation Yrotation
                End Site
                {
                    OFFSET 0.0 0.0 18.139556884765625
                }
            }
        }
    }
    JOINT LeftUpLeg
    {
        OFFSET 10.801176071166992 0.0 0.0
        CHANNELS 3 Zrotation Xrotation Yrotation
        JOINT LeftLeg
        {
            OFFSET 0.0 -44.177642822265625 0.0
            CHANNELS 3 Zrotation Xrotation Yrotation
            JOINT LeftFoot
            {
                OFFSET 0.0 -45.34889221191406 0.0
                CHANNELS 3 Zrotation Xrotation Yrotation
                End Site
                {
                    OFFSET 0.0 0.0 18.139556884765625
                }
            }
        }
    }
    JOINT Spine
    {
        OFFSET 0.0 23.492948532104492 0.0
        CHANNELS 3 Zrotation Xrotation Yrotation
        JOINT Spine3
        {
            OFFSET 0.0 24.343151092529297 0.0
            CHANNELS 3 Zrotation Xrotation Yrotation
            JOINT Neck
            {
                OFFSET 0.0 10.021479606628418 0.0
                CHANNELS 3 Zrotation Xrotation Yrotation
                End Site
                {
                    OFFSET 0.0 4.008591651916504 0.0
                }
            }
            JOINT LeftArm
            {
                OFFSET 11.650632858276367 0.0 0.0
                CHANNELS 3 Zrotation Xrotation Yrotation
                JOINT LeftForeArm
                {
                    OFFSET 23.972042083740234 0.0 0.0
                    CHANNELS 3 Zrotation Xrotation Yrotation
                    JOINT LeftHand
                    {
                        OFFSET 18.826271057128906 0.0 0.0
                        CHANNELS 3 Zrotation Xrotation Yrotation
                        End Site
                        {
                            OFFSET 7.530508995056152 0.0 0.0
                        }
                    }
                }
            }
            JOINT RightArm
            {
                OFFSET -11.650632858276367 0.0 0.0
                CHANNELS 3 Zrotation Xrotation Yrotation
                JOINT RightForeArm
                {
                    OFFSET -23.972042083740234 0.0 0.0
                    CHANNELS 3 Zrotation Xrotation Yrotation
                    JOINT RightHand
                    {
                        OFFSET -18.826271057128906 0.0 0.0
                        CHANNELS 3 Zrotation Xrotation Yrotation
                        End Site
                        {
                            OFFSET -7.530508995056152 0.0 0.0
                        }
                    }
                }
            }
        }
    }
}
MOTION
Frames: 5
Frame Time: 0.03333333333333333
-5.442580004455522e-05 89.58853912353516 -0.001235209172591567 -0.5625099223947629 -6.918296930636747 -17.839165852219164 -0.8037574185247154 17.399216703617995 -0.19644416513611435 -0.36909412855041224 11.163113644900152 -0.048788066181549614 7.951386703658792e-16 -3.1805546814635164e-15 2.484808344893372e-15 2.6622158289687627 15.37661927358409 -1.103034017357535 -0.6617035252097727 10.761563156315793 -0.6260132671648783 0.0 0.0 2.1866313435061676e-15 -0.11364965773390762 20.27980720775328 -0.4723248861937492 1.3828604983791987e-08 -8.42899359472467e-07 -0.730140839149222 3.5015599418229217 12.069388999769508 -178.73694085857383 135.8279295371022 -43.118597599774546 -172.68884083059186 -7.51823717817598e-07 -1.8956587068005309e-06 66.53729326026217 6.3611093629270335e-15 6.3611093629270335e-15 6.3611093629270335e-15 -132.84267710184093 -38.33185222950011 171.48952330406152 -1.975823373245211e-06 -5.849087980020662e-06 -83.06532650219187 -3.1805546814635168e-15 0.0 0.0
-5.540064012166113e-05 89.58856201171875 -0.001241857884451747 -0.7138490603154981 -6.972246500553859 -17.68431487263218 -0.6567011501473534 17.56084200824368 -0.24842543255912897 -0.22482205532165334 11.077521712284195 -0.10652551575784373 -1.1207183959892982e-33 -9.93923337957349e-17 -1.2921003393445538e-15 2.7217625187252525 15.509174402526538 -1.1335692420196197 -0.57989392353285 10.795974423011753 -0.6571974622210613 7.951386703658792e-16 1.987846675914698e-16 -9.93923337957349e-16 0.1564197024607977 20.307941264712888 -0.5734963730349664 3.443885138901628e-07 -1.8809754767575452e-06 -0.8487587407064078 3.8463147232404604 11.819853029754622 -178.09173802024472 135.19261268644516 -42.70501497984803 -172.85418451266952 -2.461094534602253e-06 -3.711339838721951e-06 66.68876902330716 -3.180554681463516e-15 0.0 0.0 -133.2659602694863 -38.4883214557121 171.47668089701477 -4.66786569168921e-06 -2.6169084877152192e-06 -83.40609283368458 -3.1805546814635164e-15 0.0 0.0
-5.485144356498495e-05 89.58855438232422 -0.0012375195510685444 -0.7462333922702756 -6.978182544401132 -17.7672690781128 -0.673899536059291 17.564967877926616 -0.23938930930619554 -0.22257120321613177 11.029250200173516 -0.10101217972904888 -7.951386703658792e-16 9.939233379573489e-17 9.93923337957349e-16 2.6009062455720815 15.605954895445944 -1.1043394419634172 -0.44753851880651907 10.7663002893963 -0.6557208934198494 -7.951386703658792e-16 -6.896728590703373e-33 9.93923337957349e-16 0.22545713664878506 20.33083629076683 -0.5936459901747638 2.3827048069966094e-07 -1.0666074691281393e-07 -0.8681658747702349 3.9091534589217956 11.59284457749211 -177.52010670542785 134.8500180083974 -42.44156125176214 -172.71887471553887 -7.272233838072604e-07 -2.1578825754216353e-06 67.03692953379208 0.0 6.3611093629270335e-15 0.0 -133.36054724854117 -38.35495971116636 171.48106176297375 5.886578235190056e-06 4.0221585710407134e-06 -83.25688238608048 7.951386703658791e-16 0.0 0.0
-4.017165338154882e-05 89.58851623535156 -0.0012145577929913998 -0.6763886844637803 -7.084774092545289 -17.488237850080772 -0.7563214663500604 17.714701207194985 -0.24615565992692087 -0.06720146713930257 11.131682713728901 -0.13469202493572024 8.276074308844047e-33 3.1805546814635164e-15 -2.9817700138720465e-16 2.543900084572504 15.569169578629921 -1.1127498471741992 -0.41134517460653713 10.932668058127842 -0.6802293662164292 0.0 0.0 0.0 0.3435544925555728 20.386720219317436 -0.6705278315302935 -1.5910675039245877e-08 -2.1852076095488632e-07 -0.8931564790538046 3.8251474195786885 11.467977112569669 -176.94499347077945 134.76871541390474 -42.60871944752815 -172.5393185473996 8.294116628533978e-07 -3.2966355318779676e-07 66.69749604903983 3.1805546814635168e-15 -1.7655625192200634e-31 -6.3611093629270335e-15 -133.5105285683703 -38.24336443252716 171.48364863440239 7.347878990493074e-07 -1.3283660980453354e-06 -83.36048636550521 1.5902773407317584e-15 -8.827812596100317e-32 -6.3611093629270335e-15
-4.1108160075964406e-05 89.5885009765625 -0.0012053544633090496 -0.6734991290706308 -7.108183863927072 -17.348306223312925 -0.6834640160335752 17.77140555880264 -0.2785268102689598 -0.0714262058124334 11.072270197589763 -0.1520561802480338 0.0 0.0 8.945310041616142e-16 2.602587107578148 15.638124778988285 -1.1416907371274703 -0.4464569422032183 10.941507194056035 -0.690181505299335 0.0 0.0 1.7890620083232284e-15 0.44748778508498327 20.475776760033618 -0.7204199823961518 3.783857842179574e-07 7.520116801639544e-07 -0.9380771438886595 3.477528758615459 11.577050358927163 -177.07858078887028 134.8369409392479 -42.615216657340085 -172.341109952264 1.0508076350439065e-07 -8.142068217210465e-06 66.77534235998918 0.0 0.0 0.0 -133.40173496897512 -37.919066098336124 171.52953310623545 6.7974084919851585e-06 -2.747921450327122e-06 -83.29897377785807 -2.3854160110976376e-15 1.3241718894150476e-31 -6.3611093629270335e-15
